<svg width="330" height="250" viewBox="0 0 330 250" fill="none" xmlns="http://www.w3.org/2000/svg">
<g clip-path="url(#clip0_29_31)">
<path d="M0 0.5H30ZM31 0.5H101ZM102 0.5H330ZM0 1.5H135ZM136 1.5H208ZM209 1.5H330ZM0 2.5H118ZM119 2.5H330ZM0 3.5H330ZM0 4.5H330ZM0 5.5H198ZM199 5.5H330ZM0 6.5H330ZM0 7.5H330ZM0 8.5H70ZM71 8.5H330ZM0 9.5H31ZM32 9.5H330ZM0 10.5H20ZM310 10.5H330ZM0 11.5H20ZM310 11.5H330ZM0 12.5H20ZM310 12.5H330ZM0 13.5H20ZM310 13.5H330ZM0 14.5H20ZM310 14.5H330ZM0 15.5H20ZM310 15.5H330ZM0 16.5H20ZM310 16.5H330ZM0 17.5H20ZM310 17.5H330ZM0 18.5H20ZM310 18.5H330ZM0 19.5H20ZM310 19.5H330ZM0 20.5H10ZM20 20.5H293ZM294 20.5H295ZM296 20.5H310ZM320 20.5H330ZM0 21.5H10ZM20 21.5H117ZM118 21.5H136ZM137 21.5H310ZM320 21.5H330ZM0 22.5H10ZM20 22.5H168ZM169 22.5H310ZM320 22.5H330ZM0 23.5H10ZM20 23.5H191ZM192 23.5H233ZM234 23.5H310ZM320 23.5H330ZM0 24.5H10ZM20 24.5H54ZM55 24.5H63ZM64 24.5H233ZM234 24.5H310ZM320 24.5H330ZM0 25.5H10ZM20 25.5H168ZM169 25.5H269ZM270 25.5H310ZM320 25.5H330ZM0 26.5H10ZM20 26.5H310ZM320 26.5H330ZM0 27.5H10ZM20 27.5H42ZM43 27.5H99ZM100 27.5H269ZM270 27.5H310ZM320 27.5H330ZM0 28.5H10ZM20 28.5H93ZM94 28.5H111ZM112 28.5H310ZM320 28.5H330ZM0 29.5H10ZM20 29.5H120ZM121 29.5H207ZM208 29.5H310ZM320 29.5H330ZM0 30.5H10ZM20 30.5H140ZM141 30.5H310ZM321 30.5H330ZM0 31.5H9ZM20 31.5H310ZM320 31.5H330ZM0 32.5H10ZM20 32.5H193ZM194 32.5H310ZM320 32.5H330ZM0 33.5H10ZM20 33.5H310ZM320 33.5H330ZM0 34.5H10ZM20 34.5H125ZM126 34.5H290ZM291 34.5H310ZM320 34.5H330ZM0 35.5H10ZM20 35.5H162ZM163 35.5H310ZM320 35.5H330ZM0 36.5H10ZM20 36.5H108ZM109 36.5H214ZM215 36.5H310ZM320 36.5H330ZM0 37.5H10ZM20 37.5H273ZM274 37.5H310ZM320 37.5H330ZM0 38.5H10ZM20 38.5H256ZM257 38.5H289ZM290 38.5H310ZM320 38.5H330ZM0 39.5H10ZM20 39.5H60ZM61 39.5H144ZM145 39.5H298ZM299 39.5H310ZM320 39.5H330ZM0 40.5H10ZM20 40.5H34ZM35 40.5H204ZM205 40.5H310ZM320 40.5H330ZM0 41.5H10ZM20 41.5H187ZM188 41.5H310ZM320 41.5H330ZM0 42.5H10ZM20 42.5H310ZM320 42.5H330ZM0 43.5H10ZM20 43.5H72ZM73 43.5H292ZM293 43.5H310ZM320 43.5H330ZM0 44.5H10ZM20 44.5H310ZM320 44.5H330ZM0 45.5H10ZM20 45.5H28ZM29 45.5H40ZM41 45.5H310ZM320 45.5H330ZM0 46.5H4ZM5 46.5H10ZM20 46.5H164ZM165 46.5H260ZM261 46.5H310ZM320 46.5H330ZM0 47.5H10ZM20 47.5H136ZM137 47.5H204ZM205 47.5H277ZM278 47.5H310ZM320 47.5H330ZM0 48.5H10ZM20 48.5H126ZM127 48.5H234ZM235 48.5H310ZM320 48.5H330ZM0 49.5H10ZM20 49.5H112ZM113 49.5H287ZM288 49.5H310ZM320 49.5H330ZM0 50.5H10ZM20 50.5H22ZM23 50.5H310ZM320 50.5H330ZM0 51.5H10ZM20 51.5H85ZM86 51.5H159ZM160 51.5H172ZM173 51.5H208ZM210 51.5H220ZM221 51.5H310ZM320 51.5H330ZM0 52.5H10ZM20 52.5H310ZM320 52.5H330ZM0 53.5H10ZM20 53.5H24ZM25 53.5H182ZM183 53.5H310ZM320 53.5H330ZM0 54.5H10ZM20 54.5H154ZM155 54.5H310ZM320 54.5H330ZM0 55.5H10ZM20 55.5H209ZM210 55.5H310ZM320 55.5H330ZM0 56.5H10ZM20 56.5H86ZM87 56.5H223ZM224 56.5H285ZM286 56.5H310ZM320 56.5H330ZM0 57.5H10ZM20 57.5H310ZM320 57.5H330ZM0 58.5H10ZM20 58.5H185ZM186 58.5H273ZM274 58.5H310ZM320 58.5H330ZM0 59.5H10ZM20 59.5H57ZM58 59.5H310ZM320 59.5H330ZM0 60.5H10ZM20 60.5H32ZM33 60.5H310ZM320 60.5H330ZM0 61.5H10ZM20 61.5H278ZM279 61.5H310ZM320 61.5H330ZM0 62.5H10ZM20 62.5H43ZM44 62.5H238ZM239 62.5H266ZM267 62.5H310ZM320 62.5H330ZM0 63.5H10ZM20 63.5H28ZM29 63.5H78ZM79 63.5H310ZM320 63.5H330ZM0 64.5H10ZM20 64.5H53ZM54 64.5H173ZM174 64.5H310ZM320 64.5H330ZM0 65.5H10ZM20 65.5H30ZM31 65.5H93ZM94 65.5H310ZM320 65.5H330ZM0 66.5H10ZM20 66.5H190ZM191 66.5H283ZM284 66.5H310ZM320 66.5H330ZM0 67.5H10ZM20 67.5H59ZM60 67.5H310ZM320 67.5H330ZM0 68.5H10ZM20 68.5H310ZM320 68.5H330ZM0 69.5H10ZM20 69.5H310ZM320 69.5H330ZM0 70.5H10ZM20 70.5H40ZM41 70.5H113ZM114 70.5H249ZM250 70.5H310ZM320 70.5H325ZM326 70.5H330ZM0 71.5H10ZM20 71.5H218ZM219 71.5H310ZM320 71.5H330ZM0 72.5H10ZM20 72.5H310ZM320 72.5H330ZM0 73.5H10ZM20 73.5H310ZM320 73.5H330ZM0 74.5H10ZM20 74.5H191ZM192 74.5H229ZM230 74.5H310ZM320 74.5H330ZM0 75.5H10ZM20 75.5H122ZM123 75.5H310ZM320 75.5H330ZM0 76.5H10ZM20 76.5H86ZM87 76.5H180ZM181 76.5H310ZM320 76.5H330ZM0 77.5H10ZM20 77.5H310ZM320 77.5H330ZM0 78.5H10ZM20 78.5H42ZM43 78.5H50ZM51 78.5H104ZM105 78.5H310ZM320 78.5H330ZM0 79.5H10ZM20 79.5H69ZM70 79.5H267ZM268 79.5H310ZM320 79.5H330ZM0 80.5H10ZM20 80.5H28ZM29 80.5H80ZM90 80.5H110ZM120 80.5H175ZM176 80.5H220ZM230 80.5H247ZM248 80.5H250ZM260 80.5H310ZM320 80.5H330ZM0 81.5H10ZM20 81.5H80ZM90 81.5H110ZM120 81.5H220ZM230 81.5H250ZM260 81.5H310ZM320 81.5H323ZM324 81.5H330ZM0 82.5H10ZM20 82.5H80ZM90 82.5H99ZM101 82.5H110ZM120 82.5H181ZM182 82.5H220ZM230 82.5H250ZM260 82.5H310ZM320 82.5H330ZM0 83.5H10ZM20 83.5H26ZM27 83.5H28ZM29 83.5H80ZM90 83.5H95ZM96 83.5H110ZM120 83.5H152ZM153 83.5H220ZM230 83.5H250ZM260 83.5H274ZM275 83.5H310ZM320 83.5H330ZM0 84.5H9ZM20 84.5H52ZM53 84.5H80ZM90 84.5H110ZM120 84.5H220ZM230 84.5H250ZM260 84.5H310ZM320 84.5H330ZM0 85.5H10ZM20 85.5H80ZM90 85.5H110ZM120 85.5H220ZM230 85.5H250ZM260 85.5H310ZM320 85.5H330ZM0 86.5H10ZM20 86.5H32ZM33 86.5H80ZM90 86.5H110ZM120 86.5H220ZM230 86.5H250ZM260 86.5H291ZM292 86.5H310ZM320 86.5H330ZM0 87.5H10ZM20 87.5H80ZM90 87.5H110ZM120 87.5H220ZM231 87.5H250ZM260 87.5H310ZM320 87.5H330ZM0 88.5H10ZM20 88.5H28ZM29 88.5H80ZM90 88.5H110ZM120 88.5H155ZM156 88.5H220ZM230 88.5H250ZM260 88.5H310ZM320 88.5H330ZM0 89.5H10ZM20 89.5H55ZM56 89.5H80ZM90 89.5H110ZM120 89.5H220ZM230 89.5H250ZM260 89.5H310ZM320 89.5H330ZM0 90.5H10ZM20 90.5H90ZM110 90.5H230ZM250 90.5H310ZM320 90.5H330ZM0 91.5H1ZM2 91.5H10ZM20 91.5H90ZM110 91.5H117ZM118 91.5H230ZM250 91.5H310ZM320 91.5H330ZM0 92.5H10ZM20 92.5H90ZM110 92.5H157ZM158 92.5H230ZM250 92.5H310ZM320 92.5H329ZM0 93.5H10ZM20 93.5H90ZM110 93.5H156ZM157 93.5H191ZM192 93.5H225ZM226 93.5H230ZM250 93.5H310ZM320 93.5H330ZM0 94.5H10ZM20 94.5H90ZM110 94.5H128ZM129 94.5H132ZM133 94.5H230ZM250 94.5H310ZM320 94.5H330ZM0 95.5H10ZM20 95.5H90ZM110 95.5H119ZM120 95.5H123ZM124 95.5H157ZM158 95.5H225ZM226 95.5H230ZM250 95.5H310ZM320 95.5H330ZM0 96.5H3ZM4 96.5H10ZM20 96.5H69ZM70 96.5H90ZM110 96.5H230ZM250 96.5H310ZM320 96.5H330ZM0 97.5H10ZM20 97.5H42ZM43 97.5H90ZM110 97.5H176ZM177 97.5H230ZM250 97.5H310ZM320 97.5H330ZM0 98.5H10ZM20 98.5H37ZM38 98.5H56ZM57 98.5H90ZM110 98.5H132ZM133 98.5H230ZM250 98.5H310ZM320 98.5H330ZM0 99.5H10ZM20 99.5H84ZM85 99.5H90ZM110 99.5H139ZM140 99.5H172ZM173 99.5H230ZM250 99.5H310ZM320 99.5H330ZM0 100.5H10ZM20 100.5H51ZM52 100.5H154ZM155 100.5H225ZM226 100.5H246ZM247 100.5H298ZM299 100.5H307ZM308 100.5H310ZM320 100.5H330ZM0 101.5H10ZM20 101.5H254ZM255 101.5H310ZM320 101.5H330ZM0 102.5H10ZM20 102.5H171ZM172 102.5H196ZM197 102.5H204ZM205 102.5H310ZM320 102.5H330ZM0 103.5H10ZM20 103.5H73ZM74 103.5H88ZM89 103.5H205ZM206 103.5H221ZM222 103.5H276ZM277 103.5H310ZM320 103.5H330ZM0 104.5H10ZM20 104.5H224ZM225 104.5H310ZM320 104.5H330ZM0 105.5H10ZM20 105.5H214ZM215 105.5H310ZM320 105.5H330ZM0 106.5H10ZM20 106.5H231ZM232 106.5H310ZM320 106.5H330ZM0 107.5H10ZM20 107.5H34ZM35 107.5H45ZM46 107.5H151ZM152 107.5H197ZM198 107.5H310ZM320 107.5H330ZM0 108.5H10ZM20 108.5H46ZM47 108.5H49ZM50 108.5H90ZM91 108.5H99ZM100 108.5H282ZM283 108.5H310ZM320 108.5H330ZM0 109.5H1ZM2 109.5H10ZM20 109.5H108ZM109 109.5H310ZM320 109.5H330ZM0 110.5H10ZM20 110.5H70ZM71 110.5H140ZM150 110.5H189ZM200 110.5H310ZM320 110.5H330ZM0 111.5H10ZM20 111.5H88ZM89 111.5H140ZM150 111.5H190ZM200 111.5H277ZM278 111.5H310ZM320 111.5H330ZM0 112.5H10ZM20 112.5H39ZM40 112.5H121ZM122 112.5H136ZM137 112.5H140ZM150 112.5H190ZM200 112.5H293ZM294 112.5H310ZM320 112.5H321ZM322 112.5H330ZM0 113.5H10ZM20 113.5H22ZM23 113.5H34ZM35 113.5H37ZM38 113.5H116ZM117 113.5H140ZM150 113.5H190ZM200 113.5H310ZM320 113.5H330ZM0 114.5H10ZM21 114.5H140ZM150 114.5H190ZM200 114.5H310ZM320 114.5H330ZM0 115.5H10ZM20 115.5H140ZM150 115.5H190ZM200 115.5H205ZM206 115.5H310ZM320 115.5H330ZM0 116.5H10ZM20 116.5H105ZM106 116.5H140ZM150 116.5H172ZM173 116.5H190ZM200 116.5H310ZM320 116.5H330ZM0 117.5H10ZM20 117.5H140ZM150 117.5H180ZM181 117.5H190ZM200 117.5H310ZM320 117.5H330ZM0 118.5H10ZM20 118.5H115ZM116 118.5H140ZM150 118.5H190ZM200 118.5H310ZM320 118.5H330ZM0 119.5H10ZM20 119.5H140ZM150 119.5H190ZM200 119.5H310ZM320 119.5H325ZM326 119.5H330ZM0 120.5H10ZM20 120.5H64ZM65 120.5H105ZM106 120.5H114ZM115 120.5H150ZM190 120.5H211ZM212 120.5H310ZM320 120.5H330ZM0 121.5H10ZM20 121.5H150ZM190 121.5H304ZM305 121.5H310ZM320 121.5H330ZM0 122.5H10ZM20 122.5H139ZM140 122.5H150ZM190 122.5H210ZM211 122.5H310ZM320 122.5H330ZM0 123.5H10ZM20 123.5H150ZM190 123.5H226ZM227 123.5H310ZM320 123.5H330ZM0 124.5H10ZM20 124.5H38ZM39 124.5H69ZM70 124.5H87ZM88 124.5H150ZM190 124.5H310ZM320 124.5H328ZM329 124.5H330ZM0 125.5H10ZM20 125.5H112ZM113 125.5H150ZM190 125.5H267ZM268 125.5H310ZM320 125.5H330ZM0 126.5H9ZM20 126.5H150ZM190 126.5H302ZM303 126.5H310ZM320 126.5H330ZM0 127.5H10ZM20 127.5H150ZM190 127.5H310ZM320 127.5H330ZM0 128.5H10ZM20 128.5H150ZM190 128.5H310ZM320 128.5H330ZM0 129.5H10ZM20 129.5H112ZM113 129.5H134ZM135 129.5H150ZM190 129.5H310ZM320 129.5H330ZM0 130.5H10ZM20 130.5H60ZM61 130.5H111ZM112 130.5H187ZM188 130.5H235ZM236 130.5H268ZM269 130.5H310ZM320 130.5H330ZM0 131.5H10ZM20 131.5H291ZM292 131.5H300ZM301 131.5H310ZM320 131.5H330ZM0 132.5H10ZM20 132.5H309ZM320 132.5H330ZM0 133.5H10ZM20 133.5H310ZM320 133.5H330ZM0 134.5H10ZM20 134.5H217ZM218 134.5H288ZM289 134.5H310ZM320 134.5H330ZM0 135.5H10ZM20 135.5H23ZM24 135.5H310ZM320 135.5H330ZM0 136.5H10ZM20 136.5H310ZM320 136.5H330ZM0 137.5H10ZM20 137.5H173ZM174 137.5H189ZM190 137.5H274ZM275 137.5H310ZM320 137.5H330ZM0 138.5H10ZM20 138.5H310ZM320 138.5H330ZM0 139.5H10ZM20 139.5H43ZM44 139.5H188ZM189 139.5H310ZM320 139.5H328ZM329 139.5H330ZM0 140.5H8ZM9 140.5H10ZM20 140.5H45ZM46 140.5H143ZM144 140.5H146ZM147 140.5H310ZM320 140.5H330ZM0 141.5H10ZM20 141.5H310ZM320 141.5H330ZM0 142.5H10ZM20 142.5H30ZM31 142.5H310ZM320 142.5H329ZM0 143.5H1ZM2 143.5H10ZM20 143.5H296ZM297 143.5H310ZM320 143.5H330ZM0 144.5H10ZM20 144.5H144ZM145 144.5H195ZM196 144.5H243ZM244 144.5H310ZM320 144.5H330ZM0 145.5H10ZM20 145.5H310ZM320 145.5H330ZM0 146.5H10ZM20 146.5H174ZM175 146.5H289ZM290 146.5H310ZM320 146.5H330ZM0 147.5H10ZM20 147.5H70ZM71 147.5H158ZM159 147.5H310ZM320 147.5H330ZM0 148.5H10ZM20 148.5H194ZM195 148.5H222ZM223 148.5H267ZM268 148.5H310ZM320 148.5H330ZM0 149.5H10ZM20 149.5H22ZM23 149.5H198ZM199 149.5H310ZM320 149.5H330ZM0 150.5H10ZM20 150.5H56ZM57 150.5H78ZM79 150.5H207ZM208 150.5H244ZM245 150.5H275ZM276 150.5H310ZM320 150.5H330ZM0 151.5H10ZM20 151.5H104ZM105 151.5H310ZM320 151.5H330ZM0 152.5H10ZM20 152.5H182ZM183 152.5H212ZM213 152.5H310ZM320 152.5H330ZM0 153.5H10ZM20 153.5H115ZM116 153.5H142ZM143 153.5H170ZM171 153.5H275ZM276 153.5H310ZM320 153.5H330ZM0 154.5H10ZM20 154.5H29ZM30 154.5H127ZM128 154.5H245ZM246 154.5H310ZM320 154.5H322ZM323 154.5H330ZM0 155.5H10ZM20 155.5H310ZM320 155.5H330ZM0 156.5H10ZM20 156.5H119ZM120 156.5H310ZM320 156.5H330ZM0 157.5H10ZM20 157.5H310ZM320 157.5H330ZM0 158.5H10ZM20 158.5H138ZM139 158.5H310ZM320 158.5H330ZM0 159.5H10ZM20 159.5H125ZM126 159.5H310ZM320 159.5H330ZM0 160.5H10ZM20 160.5H56ZM57 160.5H69ZM70 160.5H310ZM320 160.5H330ZM0 161.5H10ZM20 161.5H21ZM22 161.5H144ZM145 161.5H153ZM154 161.5H190ZM191 161.5H264ZM265 161.5H310ZM320 161.5H330ZM0 162.5H10ZM20 162.5H85ZM86 162.5H310ZM320 162.5H330ZM0 163.5H10ZM20 163.5H310ZM320 163.5H330ZM0 164.5H10ZM20 164.5H298ZM299 164.5H310ZM320 164.5H330ZM0 165.5H10ZM20 165.5H310ZM320 165.5H330ZM0 166.5H10ZM20 166.5H52ZM53 166.5H141ZM142 166.5H310ZM320 166.5H330ZM0 167.5H10ZM20 167.5H70ZM71 167.5H188ZM189 167.5H219ZM220 167.5H310ZM320 167.5H330ZM0 168.5H10ZM20 168.5H200ZM201 168.5H202ZM203 168.5H280ZM281 168.5H310ZM320 168.5H330ZM0 169.5H10ZM20 169.5H247ZM248 169.5H310ZM320 169.5H330ZM0 170.5H10ZM20 170.5H69ZM70 170.5H176ZM177 170.5H223ZM224 170.5H231ZM232 170.5H258ZM259 170.5H282ZM283 170.5H310ZM320 170.5H330ZM0 171.5H10ZM20 171.5H81ZM82 171.5H264ZM265 171.5H310ZM320 171.5H330ZM0 172.5H10ZM20 172.5H122ZM123 172.5H234ZM235 172.5H310ZM320 172.5H330ZM0 173.5H10ZM20 173.5H86ZM87 173.5H180ZM181 173.5H253ZM254 173.5H310ZM320 173.5H330ZM0 174.5H10ZM20 174.5H37ZM38 174.5H310ZM320 174.5H330ZM0 175.5H10ZM20 175.5H254ZM255 175.5H310ZM320 175.5H330ZM0 176.5H10ZM20 176.5H57ZM58 176.5H186ZM187 176.5H267ZM268 176.5H310ZM320 176.5H330ZM0 177.5H10ZM20 177.5H131ZM132 177.5H152ZM153 177.5H254ZM255 177.5H310ZM320 177.5H330ZM0 178.5H10ZM20 178.5H137ZM138 178.5H263ZM264 178.5H310ZM320 178.5H329ZM0 179.5H10ZM20 179.5H60ZM61 179.5H141ZM142 179.5H235ZM236 179.5H310ZM320 179.5H330ZM0 180.5H10ZM20 180.5H29ZM30 180.5H35ZM36 180.5H63ZM64 180.5H173ZM174 180.5H310ZM320 180.5H330ZM0 181.5H10ZM20 181.5H310ZM320 181.5H330ZM0 182.5H10ZM20 182.5H45ZM46 182.5H132ZM133 182.5H234ZM235 182.5H280ZM281 182.5H310ZM320 182.5H330ZM0 183.5H10ZM20 183.5H86ZM87 183.5H254ZM255 183.5H310ZM320 183.5H330ZM0 184.5H10ZM20 184.5H310ZM320 184.5H327ZM328 184.5H330ZM0 185.5H10ZM20 185.5H55ZM56 185.5H310ZM320 185.5H330ZM0 186.5H10ZM20 186.5H161ZM162 186.5H310ZM320 186.5H330ZM0 187.5H10ZM20 187.5H207ZM208 187.5H221ZM222 187.5H307ZM308 187.5H310ZM320 187.5H330ZM0 188.5H10ZM20 188.5H221ZM222 188.5H256ZM257 188.5H265ZM266 188.5H310ZM320 188.5H330ZM0 189.5H10ZM20 189.5H31ZM33 189.5H310ZM320 189.5H330ZM0 190.5H10ZM20 190.5H121ZM122 190.5H310ZM320 190.5H330ZM0 191.5H10ZM20 191.5H154ZM155 191.5H310ZM320 191.5H330ZM0 192.5H6ZM7 192.5H10ZM20 192.5H144ZM145 192.5H176ZM177 192.5H227ZM228 192.5H310ZM320 192.5H330ZM0 193.5H10ZM20 193.5H60ZM61 193.5H310ZM320 193.5H330ZM0 194.5H10ZM20 194.5H85ZM86 194.5H286ZM287 194.5H298ZM299 194.5H310ZM320 194.5H330ZM0 195.5H10ZM20 195.5H22ZM23 195.5H73ZM74 195.5H310ZM320 195.5H330ZM0 196.5H10ZM20 196.5H77ZM78 196.5H113ZM114 196.5H265ZM266 196.5H310ZM320 196.5H330ZM0 197.5H10ZM20 197.5H121ZM122 197.5H172ZM173 197.5H310ZM320 197.5H330ZM0 198.5H10ZM20 198.5H310ZM320 198.5H330ZM0 199.5H10ZM20 199.5H97ZM98 199.5H310ZM320 199.5H330ZM0 200.5H10ZM20 200.5H28ZM29 200.5H103ZM104 200.5H142ZM143 200.5H149ZM150 200.5H310ZM320 200.5H330ZM0 201.5H10ZM20 201.5H106ZM107 201.5H284ZM285 201.5H310ZM320 201.5H330ZM0 202.5H10ZM20 202.5H136ZM137 202.5H310ZM320 202.5H330ZM0 203.5H10ZM20 203.5H56ZM57 203.5H310ZM320 203.5H330ZM0 204.5H10ZM20 204.5H194ZM195 204.5H227ZM228 204.5H310ZM320 204.5H330ZM0 205.5H10ZM20 205.5H79ZM80 205.5H104ZM105 205.5H138ZM139 205.5H285ZM286 205.5H310ZM320 205.5H330ZM0 206.5H10ZM20 206.5H81ZM82 206.5H147ZM148 206.5H173ZM174 206.5H217ZM218 206.5H310ZM320 206.5H330ZM0 207.5H10ZM20 207.5H310ZM320 207.5H330ZM0 208.5H10ZM20 208.5H279ZM280 208.5H310ZM320 208.5H326ZM327 208.5H330ZM0 209.5H10ZM20 209.5H51ZM52 209.5H184ZM185 209.5H310ZM320 209.5H330ZM0 210.5H10ZM20 210.5H85ZM86 210.5H88ZM89 210.5H145ZM146 210.5H310ZM320 210.5H330ZM0 211.5H10ZM20 211.5H43ZM44 211.5H99ZM100 211.5H117ZM118 211.5H258ZM259 211.5H310ZM320 211.5H330ZM0 212.5H10ZM20 212.5H22ZM23 212.5H169ZM170 212.5H194ZM195 212.5H239ZM240 212.5H310ZM320 212.5H330ZM0 213.5H10ZM20 213.5H133ZM134 213.5H230ZM231 213.5H241ZM242 213.5H294ZM295 213.5H310ZM320 213.5H330ZM0 214.5H10ZM20 214.5H91ZM92 214.5H235ZM236 214.5H310ZM320 214.5H330ZM0 215.5H10ZM20 215.5H65ZM66 215.5H268ZM269 215.5H310ZM320 215.5H330ZM0 216.5H10ZM20 216.5H50ZM51 216.5H310ZM320 216.5H330ZM0 217.5H10ZM20 217.5H310ZM320 217.5H330ZM0 218.5H10ZM20 218.5H310ZM320 218.5H330ZM0 219.5H10ZM20 219.5H108ZM109 219.5H310ZM320 219.5H330ZM0 220.5H10ZM20 220.5H195ZM196 220.5H305ZM306 220.5H310ZM320 220.5H330ZM0 221.5H10ZM20 221.5H54ZM55 221.5H113ZM114 221.5H310ZM320 221.5H330ZM0 222.5H10ZM20 222.5H310ZM320 222.5H330ZM0 223.5H10ZM20 223.5H132ZM133 223.5H179ZM180 223.5H225ZM226 223.5H310ZM320 223.5H330ZM0 224.5H10ZM20 224.5H65ZM66 224.5H310ZM320 224.5H330ZM0 225.5H10ZM20 225.5H39ZM40 225.5H310ZM320 225.5H330ZM0 226.5H10ZM20 226.5H45ZM46 226.5H68ZM69 226.5H74ZM75 226.5H310ZM320 226.5H330ZM0 227.5H10ZM20 227.5H310ZM320 227.5H330ZM0 228.5H10ZM20 228.5H40ZM41 228.5H61ZM62 228.5H310ZM320 228.5H330ZM0 229.5H10ZM20 229.5H129ZM130 229.5H190ZM191 229.5H206ZM207 229.5H310ZM320 229.5H330ZM0 230.5H20ZM310 230.5H330ZM0 231.5H20ZM310 231.5H330ZM0 232.5H3ZM4 232.5H20ZM310 232.5H330ZM0 233.5H20ZM310 233.5H330ZM0 234.5H20ZM310 234.5H330ZM0 235.5H20ZM310 235.5H330ZM0 236.5H11ZM12 236.5H20ZM310 236.5H330ZM0 237.5H20ZM310 237.5H330ZM0 238.5H20ZM310 238.5H330ZM0 239.5H20ZM310 239.5H321ZM322 239.5H330ZM0 240.5H330ZM0 241.5H127ZM128 241.5H217ZM218 241.5H330ZM0 242.5H191ZM192 242.5H307ZM308 242.5H330ZM0 243.5H5ZM6 243.5H237ZM238 243.5H254ZM255 243.5H330ZM0 244.5H330ZM0 245.5H325ZM326 245.5H330ZM0 246.5H330ZM0 247.5H40ZM41 247.5H123ZM124 247.5H192ZM193 247.5H245ZM246 247.5H330ZM0 248.5H47ZM48 248.5H253ZM254 248.5H330ZM0 249.5H267ZM268 249.5H323ZM324 249.5H330Z" fill="#052C35"/>
<path d="M0 0.5H30M31 0.5H101M102 0.5H330M0 1.5H135M136 1.5H208M209 1.5H330M0 2.5H118M119 2.5H330M0 3.5H330M0 4.5H330M0 5.5H198M199 5.5H330M0 6.5H330M0 7.5H330M0 8.5H70M71 8.5H330M0 9.5H31M32 9.5H330M0 10.5H20M310 10.5H330M0 11.5H20M310 11.5H330M0 12.5H20M310 12.5H330M0 13.5H20M310 13.5H330M0 14.5H20M310 14.5H330M0 15.5H20M310 15.5H330M0 16.5H20M310 16.5H330M0 17.5H20M310 17.5H330M0 18.5H20M310 18.5H330M0 19.5H20M310 19.5H330M0 20.5H10M20 20.5H293M294 20.5H295M296 20.5H310M320 20.5H330M0 21.5H10M20 21.5H117M118 21.5H136M137 21.5H310M320 21.5H330M0 22.5H10M20 22.5H168M169 22.5H310M320 22.5H330M0 23.5H10M20 23.5H191M192 23.5H233M234 23.5H310M320 23.5H330M0 24.5H10M20 24.5H54M55 24.5H63M64 24.5H233M234 24.5H310M320 24.5H330M0 25.5H10M20 25.5H168M169 25.5H269M270 25.5H310M320 25.5H330M0 26.5H10M20 26.5H310M320 26.5H330M0 27.5H10M20 27.5H42M43 27.5H99M100 27.5H269M270 27.5H310M320 27.5H330M0 28.5H10M20 28.5H93M94 28.5H111M112 28.5H310M320 28.5H330M0 29.5H10M20 29.5H120M121 29.5H207M208 29.5H310M320 29.5H330M0 30.5H10M20 30.5H140M141 30.5H310M321 30.5H330M0 31.5H9M20 31.5H310M320 31.5H330M0 32.5H10M20 32.5H193M194 32.5H310M320 32.5H330M0 33.5H10M20 33.5H310M320 33.5H330M0 34.5H10M20 34.5H125M126 34.5H290M291 34.5H310M320 34.5H330M0 35.5H10M20 35.5H162M163 35.5H310M320 35.5H330M0 36.5H10M20 36.5H108M109 36.5H214M215 36.5H310M320 36.5H330M0 37.5H10M20 37.5H273M274 37.5H310M320 37.5H330M0 38.5H10M20 38.5H256M257 38.5H289M290 38.5H310M320 38.5H330M0 39.5H10M20 39.5H60M61 39.5H144M145 39.5H298M299 39.5H310M320 39.5H330M0 40.5H10M20 40.5H34M35 40.5H204M205 40.5H310M320 40.5H330M0 41.5H10M20 41.5H187M188 41.5H310M320 41.5H330M0 42.5H10M20 42.5H310M320 42.5H330M0 43.5H10M20 43.5H72M73 43.5H292M293 43.5H310M320 43.5H330M0 44.5H10M20 44.5H310M320 44.5H330M0 45.5H10M20 45.5H28M29 45.5H40M41 45.5H310M320 45.5H330M0 46.5H4M5 46.5H10M20 46.5H164M165 46.5H260M261 46.5H310M320 46.5H330M0 47.5H10M20 47.5H136M137 47.5H204M205 47.5H277M278 47.5H310M320 47.5H330M0 48.5H10M20 48.5H126M127 48.5H234M235 48.5H310M320 48.5H330M0 49.5H10M20 49.5H112M113 49.5H287M288 49.5H310M320 49.5H330M0 50.5H10M20 50.5H22M23 50.5H310M320 50.5H330M0 51.5H10M20 51.5H85M86 51.5H159M160 51.5H172M173 51.5H208M210 51.5H220M221 51.5H310M320 51.5H330M0 52.5H10M20 52.5H310M320 52.5H330M0 53.5H10M20 53.5H24M25 53.5H182M183 53.5H310M320 53.5H330M0 54.5H10M20 54.5H154M155 54.5H310M320 54.5H330M0 55.5H10M20 55.5H209M210 55.5H310M320 55.5H330M0 56.5H10M20 56.5H86M87 56.5H223M224 56.5H285M286 56.5H310M320 56.5H330M0 57.5H10M20 57.5H310M320 57.5H330M0 58.5H10M20 58.5H185M186 58.5H273M274 58.5H310M320 58.5H330M0 59.5H10M20 59.5H57M58 59.5H310M320 59.5H330M0 60.5H10M20 60.5H32M33 60.5H310M320 60.5H330M0 61.5H10M20 61.5H278M279 61.5H310M320 61.5H330M0 62.5H10M20 62.5H43M44 62.5H238M239 62.5H266M267 62.5H310M320 62.5H330M0 63.5H10M20 63.5H28M29 63.5H78M79 63.5H310M320 63.5H330M0 64.5H10M20 64.5H53M54 64.5H173M174 64.5H310M320 64.5H330M0 65.5H10M20 65.5H30M31 65.5H93M94 65.5H310M320 65.5H330M0 66.5H10M20 66.5H190M191 66.5H283M284 66.5H310M320 66.5H330M0 67.5H10M20 67.5H59M60 67.5H310M320 67.5H330M0 68.5H10M20 68.5H310M320 68.5H330M0 69.5H10M20 69.5H310M320 69.5H330M0 70.5H10M20 70.5H40M41 70.5H113M114 70.5H249M250 70.5H310M320 70.5H325M326 70.5H330M0 71.5H10M20 71.5H218M219 71.5H310M320 71.5H330M0 72.5H10M20 72.5H310M320 72.5H330M0 73.5H10M20 73.5H310M320 73.5H330M0 74.5H10M20 74.5H191M192 74.5H229M230 74.5H310M320 74.5H330M0 75.5H10M20 75.5H122M123 75.5H310M320 75.5H330M0 76.5H10M20 76.5H86M87 76.5H180M181 76.5H310M320 76.5H330M0 77.5H10M20 77.5H310M320 77.5H330M0 78.5H10M20 78.5H42M43 78.5H50M51 78.5H104M105 78.5H310M320 78.5H330M0 79.5H10M20 79.5H69M70 79.5H267M268 79.5H310M320 79.5H330M0 80.5H10M20 80.5H28M29 80.5H80M90 80.5H110M120 80.5H175M176 80.5H220M230 80.5H247M248 80.5H250M260 80.5H310M320 80.5H330M0 81.5H10M20 81.5H80M90 81.5H110M120 81.5H220M230 81.5H250M260 81.5H310M320 81.5H323M324 81.5H330M0 82.5H10M20 82.5H80M90 82.5H99M101 82.5H110M120 82.5H181M182 82.5H220M230 82.5H250M260 82.5H310M320 82.5H330M0 83.5H10M20 83.5H26M27 83.5H28M29 83.5H80M90 83.5H95M96 83.5H110M120 83.5H152M153 83.5H220M230 83.5H250M260 83.5H274M275 83.5H310M320 83.5H330M0 84.5H9M20 84.5H52M53 84.5H80M90 84.5H110M120 84.5H220M230 84.5H250M260 84.5H310M320 84.5H330M0 85.5H10M20 85.5H80M90 85.5H110M120 85.5H220M230 85.5H250M260 85.5H310M320 85.5H330M0 86.5H10M20 86.5H32M33 86.5H80M90 86.5H110M120 86.5H220M230 86.5H250M260 86.5H291M292 86.5H310M320 86.5H330M0 87.5H10M20 87.5H80M90 87.5H110M120 87.5H220M231 87.5H250M260 87.5H310M320 87.5H330M0 88.5H10M20 88.5H28M29 88.5H80M90 88.5H110M120 88.5H155M156 88.5H220M230 88.5H250M260 88.5H310M320 88.5H330M0 89.5H10M20 89.5H55M56 89.5H80M90 89.5H110M120 89.5H220M230 89.5H250M260 89.5H310M320 89.5H330M0 90.5H10M20 90.5H90M110 90.5H230M250 90.5H310M320 90.5H330M0 91.5H1M2 91.5H10M20 91.5H90M110 91.5H117M118 91.5H230M250 91.5H310M320 91.5H330M0 92.5H10M20 92.5H90M110 92.5H157M158 92.5H230M250 92.5H310M320 92.5H329M0 93.5H10M20 93.5H90M110 93.5H156M157 93.5H191M192 93.5H225M226 93.5H230M250 93.5H310M320 93.5H330M0 94.5H10M20 94.5H90M110 94.5H128M129 94.5H132M133 94.5H230M250 94.5H310M320 94.5H330M0 95.5H10M20 95.5H90M110 95.5H119M120 95.5H123M124 95.5H157M158 95.5H225M226 95.5H230M250 95.5H310M320 95.5H330M0 96.5H3M4 96.5H10M20 96.5H69M70 96.5H90M110 96.5H230M250 96.5H310M320 96.5H330M0 97.5H10M20 97.5H42M43 97.5H90M110 97.5H176M177 97.5H230M250 97.5H310M320 97.5H330M0 98.5H10M20 98.5H37M38 98.5H56M57 98.5H90M110 98.5H132M133 98.5H230M250 98.5H310M320 98.5H330M0 99.5H10M20 99.5H84M85 99.5H90M110 99.5H139M140 99.5H172M173 99.5H230M250 99.5H310M320 99.5H330M0 100.5H10M20 100.5H51M52 100.5H154M155 100.5H225M226 100.5H246M247 100.5H298M299 100.5H307M308 100.5H310M320 100.5H330M0 101.5H10M20 101.5H254M255 101.5H310M320 101.5H330M0 102.5H10M20 102.5H171M172 102.5H196M197 102.5H204M205 102.5H310M320 102.5H330M0 103.5H10M20 103.5H73M74 103.5H88M89 103.5H205M206 103.5H221M222 103.5H276M277 103.5H310M320 103.5H330M0 104.5H10M20 104.5H224M225 104.5H310M320 104.5H330M0 105.5H10M20 105.5H214M215 105.5H310M320 105.5H330M0 106.5H10M20 106.5H231M232 106.5H310M320 106.5H330M0 107.5H10M20 107.5H34M35 107.5H45M46 107.5H151M152 107.5H197M198 107.5H310M320 107.5H330M0 108.5H10M20 108.5H46M47 108.5H49M50 108.5H90M91 108.5H99M100 108.5H282M283 108.5H310M320 108.5H330M0 109.5H1M2 109.5H10M20 109.5H108M109 109.5H310M320 109.5H330M0 110.5H10M20 110.5H70M71 110.5H140M150 110.5H189M200 110.5H310M320 110.5H330M0 111.5H10M20 111.5H88M89 111.5H140M150 111.5H190M200 111.5H277M278 111.5H310M320 111.5H330M0 112.5H10M20 112.5H39M40 112.5H121M122 112.5H136M137 112.5H140M150 112.5H190M200 112.5H293M294 112.5H310M320 112.5H321M322 112.5H330M0 113.5H10M20 113.5H22M23 113.5H34M35 113.5H37M38 113.5H116M117 113.5H140M150 113.5H190M200 113.5H310M320 113.5H330M0 114.5H10M21 114.5H140M150 114.5H190M200 114.5H310M320 114.5H330M0 115.5H10M20 115.5H140M150 115.5H190M200 115.5H205M206 115.5H310M320 115.5H330M0 116.5H10M20 116.5H105M106 116.5H140M150 116.5H172M173 116.5H190M200 116.5H310M320 116.5H330M0 117.5H10M20 117.5H140M150 117.5H180M181 117.5H190M200 117.5H310M320 117.5H330M0 118.5H10M20 118.5H115M116 118.5H140M150 118.5H190M200 118.5H310M320 118.5H330M0 119.5H10M20 119.5H140M150 119.5H190M200 119.5H310M320 119.5H325M326 119.5H330M0 120.5H10M20 120.5H64M65 120.5H105M106 120.5H114M115 120.5H150M190 120.5H211M212 120.5H310M320 120.5H330M0 121.5H10M20 121.5H150M190 121.5H304M305 121.5H310M320 121.5H330M0 122.5H10M20 122.5H139M140 122.5H150M190 122.5H210M211 122.5H310M320 122.5H330M0 123.5H10M20 123.5H150M190 123.5H226M227 123.5H310M320 123.5H330M0 124.5H10M20 124.5H38M39 124.5H69M70 124.5H87M88 124.5H150M190 124.5H310M320 124.5H328M329 124.5H330M0 125.5H10M20 125.5H112M113 125.5H150M190 125.5H267M268 125.5H310M320 125.5H330M0 126.5H9M20 126.5H150M190 126.5H302M303 126.5H310M320 126.5H330M0 127.5H10M20 127.5H150M190 127.5H310M320 127.5H330M0 128.5H10M20 128.5H150M190 128.5H310M320 128.5H330M0 129.5H10M20 129.5H112M113 129.5H134M135 129.5H150M190 129.5H310M320 129.5H330M0 130.5H10M20 130.5H60M61 130.5H111M112 130.5H187M188 130.5H235M236 130.5H268M269 130.5H310M320 130.5H330M0 131.5H10M20 131.5H291M292 131.5H300M301 131.5H310M320 131.5H330M0 132.5H10M20 132.5H309M320 132.5H330M0 133.5H10M20 133.5H310M320 133.5H330M0 134.5H10M20 134.5H217M218 134.5H288M289 134.5H310M320 134.5H330M0 135.5H10M20 135.5H23M24 135.5H310M320 135.5H330M0 136.5H10M20 136.5H310M320 136.5H330M0 137.5H10M20 137.5H173M174 137.5H189M190 137.5H274M275 137.5H310M320 137.5H330M0 138.5H10M20 138.5H310M320 138.5H330M0 139.5H10M20 139.5H43M44 139.5H188M189 139.5H310M320 139.5H328M329 139.5H330M0 140.5H8M9 140.5H10M20 140.5H45M46 140.5H143M144 140.5H146M147 140.5H310M320 140.5H330M0 141.5H10M20 141.5H310M320 141.5H330M0 142.5H10M20 142.5H30M31 142.5H310M320 142.5H329M0 143.5H1M2 143.5H10M20 143.5H296M297 143.5H310M320 143.5H330M0 144.5H10M20 144.5H144M145 144.5H195M196 144.5H243M244 144.5H310M320 144.5H330M0 145.5H10M20 145.5H310M320 145.5H330M0 146.5H10M20 146.5H174M175 146.5H289M290 146.5H310M320 146.5H330M0 147.5H10M20 147.5H70M71 147.5H158M159 147.5H310M320 147.5H330M0 148.5H10M20 148.5H194M195 148.5H222M223 148.5H267M268 148.5H310M320 148.5H330M0 149.5H10M20 149.5H22M23 149.5H198M199 149.5H310M320 149.5H330M0 150.5H10M20 150.5H56M57 150.5H78M79 150.5H207M208 150.5H244M245 150.5H275M276 150.5H310M320 150.5H330M0 151.5H10M20 151.5H104M105 151.5H310M320 151.5H330M0 152.5H10M20 152.5H182M183 152.5H212M213 152.5H310M320 152.5H330M0 153.5H10M20 153.5H115M116 153.5H142M143 153.5H170M171 153.5H275M276 153.5H310M320 153.5H330M0 154.5H10M20 154.5H29M30 154.5H127M128 154.5H245M246 154.5H310M320 154.5H322M323 154.5H330M0 155.5H10M20 155.5H310M320 155.5H330M0 156.5H10M20 156.5H119M120 156.5H310M320 156.5H330M0 157.5H10M20 157.5H310M320 157.5H330M0 158.5H10M20 158.5H138M139 158.5H310M320 158.5H330M0 159.5H10M20 159.5H125M126 159.5H310M320 159.5H330M0 160.5H10M20 160.5H56M57 160.5H69M70 160.5H310M320 160.5H330M0 161.5H10M20 161.5H21M22 161.5H144M145 161.5H153M154 161.5H190M191 161.5H264M265 161.5H310M320 161.5H330M0 162.5H10M20 162.5H85M86 162.5H310M320 162.5H330M0 163.5H10M20 163.5H310M320 163.5H330M0 164.5H10M20 164.5H298M299 164.5H310M320 164.5H330M0 165.5H10M20 165.5H310M320 165.5H330M0 166.5H10M20 166.5H52M53 166.5H141M142 166.5H310M320 166.5H330M0 167.5H10M20 167.5H70M71 167.5H188M189 167.5H219M220 167.5H310M320 167.5H330M0 168.5H10M20 168.5H200M201 168.5H202M203 168.5H280M281 168.5H310M320 168.5H330M0 169.5H10M20 169.5H247M248 169.5H310M320 169.5H330M0 170.5H10M20 170.5H69M70 170.5H176M177 170.5H223M224 170.5H231M232 170.5H258M259 170.5H282M283 170.5H310M320 170.5H330M0 171.5H10M20 171.5H81M82 171.5H264M265 171.5H310M320 171.5H330M0 172.5H10M20 172.5H122M123 172.5H234M235 172.5H310M320 172.5H330M0 173.5H10M20 173.5H86M87 173.5H180M181 173.5H253M254 173.5H310M320 173.5H330M0 174.5H10M20 174.5H37M38 174.5H310M320 174.5H330M0 175.5H10M20 175.5H254M255 175.5H310M320 175.5H330M0 176.5H10M20 176.5H57M58 176.5H186M187 176.5H267M268 176.5H310M320 176.5H330M0 177.5H10M20 177.5H131M132 177.5H152M153 177.5H254M255 177.5H310M320 177.5H330M0 178.5H10M20 178.5H137M138 178.5H263M264 178.5H310M320 178.5H329M0 179.5H10M20 179.5H60M61 179.5H141M142 179.5H235M236 179.5H310M320 179.5H330M0 180.5H10M20 180.5H29M30 180.5H35M36 180.5H63M64 180.5H173M174 180.5H310M320 180.5H330M0 181.5H10M20 181.5H310M320 181.5H330M0 182.5H10M20 182.5H45M46 182.5H132M133 182.5H234M235 182.5H280M281 182.5H310M320 182.5H330M0 183.5H10M20 183.5H86M87 183.5H254M255 183.5H310M320 183.5H330M0 184.5H10M20 184.5H310M320 184.5H327M328 184.5H330M0 185.5H10M20 185.5H55M56 185.5H310M320 185.5H330M0 186.5H10M20 186.5H161M162 186.5H310M320 186.5H330M0 187.5H10M20 187.5H207M208 187.5H221M222 187.5H307M308 187.5H310M320 187.5H330M0 188.5H10M20 188.5H221M222 188.5H256M257 188.5H265M266 188.5H310M320 188.5H330M0 189.5H10M20 189.5H31M33 189.5H310M320 189.5H330M0 190.5H10M20 190.5H121M122 190.5H310M320 190.5H330M0 191.5H10M20 191.5H154M155 191.5H310M320 191.5H330M0 192.5H6M7 192.5H10M20 192.5H144M145 192.5H176M177 192.5H227M228 192.5H310M320 192.5H330M0 193.5H10M20 193.5H60M61 193.5H310M320 193.5H330M0 194.5H10M20 194.5H85M86 194.5H286M287 194.5H298M299 194.5H310M320 194.5H330M0 195.5H10M20 195.5H22M23 195.5H73M74 195.5H310M320 195.5H330M0 196.5H10M20 196.5H77M78 196.5H113M114 196.5H265M266 196.5H310M320 196.5H330M0 197.5H10M20 197.5H121M122 197.5H172M173 197.5H310M320 197.5H330M0 198.5H10M20 198.5H310M320 198.5H330M0 199.5H10M20 199.5H97M98 199.5H310M320 199.5H330M0 200.5H10M20 200.5H28M29 200.5H103M104 200.5H142M143 200.5H149M150 200.5H310M320 200.5H330M0 201.5H10M20 201.5H106M107 201.5H284M285 201.5H310M320 201.5H330M0 202.5H10M20 202.5H136M137 202.5H310M320 202.5H330M0 203.5H10M20 203.5H56M57 203.5H310M320 203.5H330M0 204.5H10M20 204.5H194M195 204.5H227M228 204.5H310M320 204.5H330M0 205.5H10M20 205.5H79M80 205.5H104M105 205.5H138M139 205.5H285M286 205.5H310M320 205.5H330M0 206.5H10M20 206.5H81M82 206.5H147M148 206.5H173M174 206.5H217M218 206.5H310M320 206.5H330M0 207.5H10M20 207.5H310M320 207.5H330M0 208.5H10M20 208.5H279M280 208.5H310M320 208.5H326M327 208.5H330M0 209.5H10M20 209.5H51M52 209.5H184M185 209.5H310M320 209.5H330M0 210.5H10M20 210.5H85M86 210.5H88M89 210.5H145M146 210.5H310M320 210.5H330M0 211.5H10M20 211.5H43M44 211.5H99M100 211.5H117M118 211.5H258M259 211.5H310M320 211.5H330M0 212.5H10M20 212.5H22M23 212.5H169M170 212.5H194M195 212.5H239M240 212.5H310M320 212.5H330M0 213.5H10M20 213.5H133M134 213.5H230M231 213.5H241M242 213.5H294M295 213.5H310M320 213.5H330M0 214.5H10M20 214.5H91M92 214.5H235M236 214.5H310M320 214.5H330M0 215.5H10M20 215.5H65M66 215.5H268M269 215.5H310M320 215.5H330M0 216.5H10M20 216.5H50M51 216.5H310M320 216.5H330M0 217.5H10M20 217.5H310M320 217.5H330M0 218.5H10M20 218.5H310M320 218.5H330M0 219.5H10M20 219.5H108M109 219.5H310M320 219.5H330M0 220.5H10M20 220.5H195M196 220.5H305M306 220.5H310M320 220.5H330M0 221.5H10M20 221.5H54M55 221.5H113M114 221.5H310M320 221.5H330M0 222.5H10M20 222.5H310M320 222.5H330M0 223.5H10M20 223.5H132M133 223.5H179M180 223.5H225M226 223.5H310M320 223.5H330M0 224.5H10M20 224.5H65M66 224.5H310M320 224.5H330M0 225.5H10M20 225.5H39M40 225.5H310M320 225.5H330M0 226.5H10M20 226.5H45M46 226.5H68M69 226.5H74M75 226.5H310M320 226.5H330M0 227.5H10M20 227.5H310M320 227.5H330M0 228.5H10M20 228.5H40M41 228.5H61M62 228.5H310M320 228.5H330M0 229.5H10M20 229.5H129M130 229.5H190M191 229.5H206M207 229.5H310M320 229.5H330M0 230.5H20M310 230.5H330M0 231.5H20M310 231.5H330M0 232.5H3M4 232.5H20M310 232.5H330M0 233.5H20M310 233.5H330M0 234.5H20M310 234.5H330M0 235.5H20M310 235.5H330M0 236.5H11M12 236.5H20M310 236.5H330M0 237.5H20M310 237.5H330M0 238.5H20M310 238.5H330M0 239.5H20M310 239.5H321M322 239.5H330M0 240.5H330M0 241.5H127M128 241.5H217M218 241.5H330M0 242.5H191M192 242.5H307M308 242.5H330M0 243.5H5M6 243.5H237M238 243.5H254M255 243.5H330M0 244.5H330M0 245.5H325M326 245.5H330M0 246.5H330M0 247.5H40M41 247.5H123M124 247.5H192M193 247.5H245M246 247.5H330M0 248.5H47M48 248.5H253M254 248.5H330M0 249.5H267M268 249.5H323M324 249.5H330" stroke="#45DED5"/>
<path d="M30 0.5H31ZM135 1.5H136ZM198 5.5H199ZM117 21.5H118ZM168 22.5H169ZM54 24.5H55ZM63 24.5H64ZM168 25.5H169ZM42 27.5H43ZM99 27.5H100ZM93 28.5H94ZM111 28.5H112ZM120 29.5H121ZM207 29.5H208ZM9 31.5H10ZM162 35.5H163ZM108 36.5H109ZM273 37.5H274ZM60 39.5H61ZM144 39.5H145ZM204 40.5H205ZM72 43.5H73ZM204 47.5H205ZM126 48.5H127ZM234 48.5H235ZM159 51.5H160ZM24 53.5H25ZM285 56.5H286ZM273 58.5H274ZM57 59.5H58ZM78 63.5H79ZM30 65.5H31ZM93 65.5H94ZM249 70.5H250ZM180 76.5H181ZM42 78.5H43ZM69 79.5H70ZM267 79.5H268ZM99 82.5H100ZM9 84.5H10ZM291 86.5H292ZM117 91.5H118ZM156 93.5H157ZM225 93.5H226ZM132 94.5H133ZM123 95.5H124ZM225 95.5H226ZM3 96.5H4ZM69 96.5H70ZM42 97.5H43ZM132 98.5H133ZM84 99.5H85ZM51 100.5H52ZM225 100.5H226ZM246 100.5H247ZM171 102.5H172ZM204 102.5H205ZM276 103.5H277ZM231 106.5H232ZM45 107.5H46ZM90 108.5H91ZM99 108.5H100ZM282 108.5H283ZM108 109.5H109ZM189 110.5H190ZM39 112.5H40ZM321 112.5H322ZM105 116.5H106ZM180 117.5H181ZM105 120.5H106ZM114 120.5H115ZM210 122.5H211ZM69 124.5H70ZM87 124.5H88ZM267 125.5H268ZM9 126.5H10ZM60 130.5H61ZM111 130.5H112ZM291 131.5H292ZM300 131.5H301ZM309 132.5H310ZM288 134.5H289ZM189 137.5H190ZM45 140.5H46ZM30 142.5H31ZM144 144.5H145ZM195 144.5H196ZM243 144.5H244ZM174 146.5H175ZM222 148.5H223ZM267 148.5H268ZM198 149.5H199ZM78 150.5H79ZM207 150.5H208ZM138 158.5H139ZM69 160.5H70ZM21 161.5H22ZM144 161.5H145ZM153 161.5H154ZM264 161.5H265ZM141 166.5H142ZM219 167.5H220ZM69 170.5H70ZM231 170.5H232ZM258 170.5H259ZM282 170.5H283ZM81 171.5H82ZM264 171.5H265ZM234 172.5H235ZM180 173.5H181ZM57 176.5H58ZM186 176.5H187ZM267 176.5H268ZM60 179.5H61ZM141 179.5H142ZM63 180.5H64ZM45 182.5H46ZM132 182.5H133ZM234 182.5H235ZM327 184.5H328ZM207 187.5H208ZM6 192.5H7ZM144 192.5H145ZM60 193.5H61ZM138 205.5H139ZM285 205.5H286ZM81 206.5H82ZM147 206.5H148ZM279 208.5H280ZM51 209.5H52ZM99 211.5H100ZM117 211.5H118ZM258 211.5H259ZM294 213.5H295ZM108 219.5H109ZM195 220.5H196ZM54 221.5H55ZM132 223.5H133ZM225 223.5H226ZM39 225.5H40ZM45 226.5H46ZM129 229.5H130ZM3 232.5H4ZM321 239.5H322ZM237 243.5H238ZM123 247.5H124ZM192 247.5H193ZM267 249.5H268Z" fill="#052C35"/>
<path d="M30 0.5H31M135 1.5H136M198 5.5H199M117 21.5H118M168 22.5H169M54 24.5H55M63 24.5H64M168 25.5H169M42 27.5H43M99 27.5H100M93 28.5H94M111 28.5H112M120 29.5H121M207 29.5H208M9 31.5H10M162 35.5H163M108 36.5H109M273 37.5H274M60 39.5H61M144 39.5H145M204 40.5H205M72 43.5H73M204 47.5H205M126 48.5H127M234 48.5H235M159 51.5H160M24 53.5H25M285 56.5H286M273 58.5H274M57 59.5H58M78 63.5H79M30 65.5H31M93 65.5H94M249 70.5H250M180 76.5H181M42 78.5H43M69 79.5H70M267 79.5H268M99 82.5H100M9 84.5H10M291 86.5H292M117 91.5H118M156 93.5H157M225 93.5H226M132 94.5H133M123 95.5H124M225 95.5H226M3 96.5H4M69 96.5H70M42 97.5H43M132 98.5H133M84 99.5H85M51 100.5H52M225 100.5H226M246 100.5H247M171 102.5H172M204 102.5H205M276 103.5H277M231 106.5H232M45 107.5H46M90 108.5H91M99 108.5H100M282 108.5H283M108 109.5H109M189 110.5H190M39 112.5H40M321 112.5H322M105 116.5H106M180 117.5H181M105 120.5H106M114 120.5H115M210 122.5H211M69 124.5H70M87 124.5H88M267 125.5H268M9 126.5H10M60 130.5H61M111 130.5H112M291 131.5H292M300 131.5H301M309 132.5H310M288 134.5H289M189 137.5H190M45 140.5H46M30 142.5H31M144 144.5H145M195 144.5H196M243 144.5H244M174 146.5H175M222 148.5H223M267 148.5H268M198 149.5H199M78 150.5H79M207 150.5H208M138 158.5H139M69 160.5H70M21 161.5H22M144 161.5H145M153 161.5H154M264 161.5H265M141 166.5H142M219 167.5H220M69 170.5H70M231 170.5H232M258 170.5H259M282 170.5H283M81 171.5H82M264 171.5H265M234 172.5H235M180 173.5H181M57 176.5H58M186 176.5H187M267 176.5H268M60 179.5H61M141 179.5H142M63 180.5H64M45 182.5H46M132 182.5H133M234 182.5H235M327 184.5H328M207 187.5H208M6 192.5H7M144 192.5H145M60 193.5H61M138 205.5H139M285 205.5H286M81 206.5H82M147 206.5H148M279 208.5H280M51 209.5H52M99 211.5H100M117 211.5H118M258 211.5H259M294 213.5H295M108 219.5H109M195 220.5H196M54 221.5H55M132 223.5H133M225 223.5H226M39 225.5H40M45 226.5H46M129 229.5H130M3 232.5H4M321 239.5H322M237 243.5H238M123 247.5H124M192 247.5H193M267 249.5H268" stroke="#45DED5"/>
<path d="M101 0.5H102ZM293 20.5H294ZM191 23.5H192ZM233 23.5H234ZM233 24.5H234ZM269 25.5H270ZM269 27.5H270ZM140 30.5H141ZM320 30.5H321ZM125 34.5H126ZM290 34.5H291ZM164 46.5H165ZM260 46.5H261ZM287 49.5H288ZM209 51.5H210ZM182 53.5H183ZM209 55.5H210ZM86 56.5H87ZM185 58.5H186ZM32 60.5H33ZM278 61.5H279ZM266 62.5H267ZM53 64.5H54ZM173 64.5H174ZM59 67.5H60ZM113 70.5H114ZM218 71.5H219ZM191 74.5H192ZM122 75.5H123ZM86 76.5H87ZM50 78.5H51ZM104 78.5H105ZM323 81.5H324ZM26 83.5H27ZM95 83.5H96ZM152 83.5H153ZM32 86.5H33ZM230 87.5H231ZM155 88.5H156ZM329 92.5H330ZM191 93.5H192ZM128 94.5H129ZM119 95.5H120ZM176 97.5H177ZM56 98.5H57ZM254 101.5H255ZM221 103.5H222ZM224 104.5H225ZM197 107.5H198ZM293 112.5H294ZM116 113.5H117ZM20 114.5H21ZM38 124.5H39ZM302 126.5H303ZM134 129.5H135ZM23 135.5H24ZM173 137.5H174ZM188 139.5H189ZM8 140.5H9ZM143 140.5H144ZM146 140.5H147ZM329 142.5H330ZM296 143.5H297ZM158 147.5H159ZM194 148.5H195ZM56 150.5H57ZM275 150.5H276ZM104 151.5H105ZM182 152.5H183ZM212 152.5H213ZM170 153.5H171ZM275 153.5H276ZM29 154.5H30ZM245 154.5H246ZM119 156.5H120ZM125 159.5H126ZM56 160.5H57ZM188 167.5H189ZM200 168.5H201ZM176 170.5H177ZM122 172.5H123ZM86 173.5H87ZM254 175.5H255ZM131 177.5H132ZM152 177.5H153ZM254 177.5H255ZM137 178.5H138ZM263 178.5H264ZM329 178.5H330ZM29 180.5H30ZM35 180.5H36ZM173 180.5H174ZM86 183.5H87ZM254 183.5H255ZM161 186.5H162ZM221 187.5H222ZM221 188.5H222ZM32 189.5H33ZM176 192.5H177ZM227 192.5H228ZM77 196.5H78ZM113 196.5H114ZM149 200.5H150ZM284 201.5H285ZM56 203.5H57ZM194 204.5H195ZM227 204.5H228ZM104 205.5H105ZM173 206.5H174ZM326 208.5H327ZM194 212.5H195ZM239 212.5H240ZM230 213.5H231ZM65 215.5H66ZM50 216.5H51ZM305 220.5H306ZM113 221.5H114ZM179 223.5H180ZM65 224.5H66ZM68 226.5H69ZM74 226.5H75ZM206 229.5H207ZM11 236.5H12ZM191 242.5H192ZM5 243.5H6ZM254 243.5H255ZM245 247.5H246ZM47 248.5H48ZM323 249.5H324Z" fill="#052C35"/>
<path d="M101 0.5H102M293 20.5H294M191 23.5H192M233 23.5H234M233 24.5H234M269 25.5H270M269 27.5H270M140 30.5H141M320 30.5H321M125 34.5H126M290 34.5H291M164 46.5H165M260 46.5H261M287 49.5H288M209 51.5H210M182 53.5H183M209 55.5H210M86 56.5H87M185 58.5H186M32 60.5H33M278 61.5H279M266 62.5H267M53 64.5H54M173 64.5H174M59 67.5H60M113 70.5H114M218 71.5H219M191 74.5H192M122 75.5H123M86 76.5H87M50 78.5H51M104 78.5H105M323 81.5H324M26 83.5H27M95 83.5H96M152 83.5H153M32 86.5H33M230 87.5H231M155 88.5H156M329 92.5H330M191 93.5H192M128 94.5H129M119 95.5H120M176 97.5H177M56 98.5H57M254 101.5H255M221 103.5H222M224 104.5H225M197 107.5H198M293 112.5H294M116 113.5H117M20 114.5H21M38 124.5H39M302 126.5H303M134 129.5H135M23 135.5H24M173 137.5H174M188 139.5H189M8 140.5H9M143 140.5H144M146 140.5H147M329 142.5H330M296 143.5H297M158 147.5H159M194 148.5H195M56 150.5H57M275 150.5H276M104 151.5H105M182 152.5H183M212 152.5H213M170 153.5H171M275 153.5H276M29 154.5H30M245 154.5H246M119 156.5H120M125 159.5H126M56 160.5H57M188 167.5H189M200 168.5H201M176 170.5H177M122 172.5H123M86 173.5H87M254 175.5H255M131 177.5H132M152 177.5H153M254 177.5H255M137 178.5H138M263 178.5H264M329 178.5H330M29 180.5H30M35 180.5H36M173 180.5H174M86 183.5H87M254 183.5H255M161 186.5H162M221 187.5H222M221 188.5H222M32 189.5H33M176 192.5H177M227 192.5H228M77 196.5H78M113 196.5H114M149 200.5H150M284 201.5H285M56 203.5H57M194 204.5H195M227 204.5H228M104 205.5H105M173 206.5H174M326 208.5H327M194 212.5H195M239 212.5H240M230 213.5H231M65 215.5H66M50 216.5H51M305 220.5H306M113 221.5H114M179 223.5H180M65 224.5H66M68 226.5H69M74 226.5H75M206 229.5H207M11 236.5H12M191 242.5H192M5 243.5H6M254 243.5H255M245 247.5H246M47 248.5H48M323 249.5H324" stroke="#45DED5"/>
<path d="M208 1.5H209ZM118 2.5H119ZM70 8.5H71ZM31 9.5H32ZM295 20.5H296ZM136 21.5H137ZM193 32.5H194ZM214 36.5H215ZM256 38.5H257ZM289 38.5H290ZM298 39.5H299ZM34 40.5H35ZM187 41.5H188ZM292 43.5H293ZM28 45.5H29ZM40 45.5H41ZM4 46.5H5ZM136 47.5H137ZM277 47.5H278ZM112 49.5H113ZM22 50.5H23ZM85 51.5H86ZM172 51.5H173ZM208 51.5H209ZM220 51.5H221ZM154 54.5H155ZM223 56.5H224ZM43 62.5H44ZM238 62.5H239ZM28 63.5H29ZM190 66.5H191ZM283 66.5H284ZM40 70.5H41ZM325 70.5H326ZM229 74.5H230ZM28 80.5H29ZM175 80.5H176ZM247 80.5H248ZM100 82.5H101ZM181 82.5H182ZM28 83.5H29ZM274 83.5H275ZM52 84.5H53ZM28 88.5H29ZM55 89.5H56ZM1 91.5H2ZM157 92.5H158ZM157 95.5H158ZM37 98.5H38ZM139 99.5H140ZM172 99.5H173ZM154 100.5H155ZM298 100.5H299ZM307 100.5H308ZM196 102.5H197ZM73 103.5H74ZM88 103.5H89ZM205 103.5H206ZM214 105.5H215ZM34 107.5H35ZM151 107.5H152ZM46 108.5H47ZM49 108.5H50ZM1 109.5H2ZM70 110.5H71ZM88 111.5H89ZM277 111.5H278ZM121 112.5H122ZM136 112.5H137ZM22 113.5H23ZM34 113.5H35ZM37 113.5H38ZM205 115.5H206ZM172 116.5H173ZM115 118.5H116ZM325 119.5H326ZM64 120.5H65ZM211 120.5H212ZM304 121.5H305ZM139 122.5H140ZM226 123.5H227ZM328 124.5H329ZM112 125.5H113ZM112 129.5H113ZM187 130.5H188ZM235 130.5H236ZM268 130.5H269ZM217 134.5H218ZM274 137.5H275ZM43 139.5H44ZM328 139.5H329ZM1 143.5H2ZM289 146.5H290ZM70 147.5H71ZM22 149.5H23ZM244 150.5H245ZM115 153.5H116ZM142 153.5H143ZM127 154.5H128ZM322 154.5H323ZM190 161.5H191ZM85 162.5H86ZM298 164.5H299ZM52 166.5H53ZM70 167.5H71ZM202 168.5H203ZM280 168.5H281ZM247 169.5H248ZM223 170.5H224ZM253 173.5H254ZM37 174.5H38ZM235 179.5H236ZM280 182.5H281ZM55 185.5H56ZM307 187.5H308ZM256 188.5H257ZM265 188.5H266ZM31 189.5H32ZM121 190.5H122ZM154 191.5H155ZM85 194.5H86ZM286 194.5H287ZM298 194.5H299ZM22 195.5H23ZM73 195.5H74ZM265 196.5H266ZM121 197.5H122ZM172 197.5H173ZM97 199.5H98ZM28 200.5H29ZM103 200.5H104ZM142 200.5H143ZM106 201.5H107ZM136 202.5H137ZM79 205.5H80ZM217 206.5H218ZM184 209.5H185ZM85 210.5H86ZM88 210.5H89ZM145 210.5H146ZM43 211.5H44ZM22 212.5H23ZM169 212.5H170ZM133 213.5H134ZM241 213.5H242ZM91 214.5H92ZM235 214.5H236ZM268 215.5H269ZM40 228.5H41ZM61 228.5H62ZM190 229.5H191ZM127 241.5H128ZM217 241.5H218ZM307 242.5H308ZM325 245.5H326ZM40 247.5H41ZM253 248.5H254Z" fill="#052C35"/>
<path d="M208 1.5H209M118 2.5H119M70 8.5H71M31 9.5H32M295 20.5H296M136 21.5H137M193 32.5H194M214 36.5H215M256 38.5H257M289 38.5H290M298 39.5H299M34 40.5H35M187 41.5H188M292 43.5H293M28 45.5H29M40 45.5H41M4 46.5H5M136 47.5H137M277 47.5H278M112 49.5H113M22 50.5H23M85 51.5H86M172 51.5H173M208 51.5H209M220 51.5H221M154 54.5H155M223 56.5H224M43 62.5H44M238 62.5H239M28 63.5H29M190 66.5H191M283 66.5H284M40 70.5H41M325 70.5H326M229 74.5H230M28 80.5H29M175 80.5H176M247 80.5H248M100 82.5H101M181 82.5H182M28 83.5H29M274 83.5H275M52 84.5H53M28 88.5H29M55 89.5H56M1 91.5H2M157 92.5H158M157 95.5H158M37 98.5H38M139 99.5H140M172 99.5H173M154 100.5H155M298 100.5H299M307 100.5H308M196 102.5H197M73 103.5H74M88 103.5H89M205 103.5H206M214 105.5H215M34 107.5H35M151 107.5H152M46 108.5H47M49 108.5H50M1 109.5H2M70 110.5H71M88 111.5H89M277 111.5H278M121 112.5H122M136 112.5H137M22 113.5H23M34 113.5H35M37 113.5H38M205 115.5H206M172 116.5H173M115 118.5H116M325 119.5H326M64 120.5H65M211 120.5H212M304 121.5H305M139 122.5H140M226 123.5H227M328 124.5H329M112 125.5H113M112 129.5H113M187 130.5H188M235 130.5H236M268 130.5H269M217 134.5H218M274 137.5H275M43 139.5H44M328 139.5H329M1 143.5H2M289 146.5H290M70 147.5H71M22 149.5H23M244 150.5H245M115 153.5H116M142 153.5H143M127 154.5H128M322 154.5H323M190 161.5H191M85 162.5H86M298 164.5H299M52 166.5H53M70 167.5H71M202 168.5H203M280 168.5H281M247 169.5H248M223 170.5H224M253 173.5H254M37 174.5H38M235 179.5H236M280 182.5H281M55 185.5H56M307 187.5H308M256 188.5H257M265 188.5H266M31 189.5H32M121 190.5H122M154 191.5H155M85 194.5H86M286 194.5H287M298 194.5H299M22 195.5H23M73 195.5H74M265 196.5H266M121 197.5H122M172 197.5H173M97 199.5H98M28 200.5H29M103 200.5H104M142 200.5H143M106 201.5H107M136 202.5H137M79 205.5H80M217 206.5H218M184 209.5H185M85 210.5H86M88 210.5H89M145 210.5H146M43 211.5H44M22 212.5H23M169 212.5H170M133 213.5H134M241 213.5H242M91 214.5H92M235 214.5H236M268 215.5H269M40 228.5H41M61 228.5H62M190 229.5H191M127 241.5H128M217 241.5H218M307 242.5H308M325 245.5H326M40 247.5H41M253 248.5H254" stroke="#45DED5"/>
<path d="M20 10.5H58ZM59 10.5H120ZM121 10.5H147ZM148 10.5H223ZM224 10.5H277ZM278 10.5H310ZM20 11.5H140ZM141 11.5H206ZM207 11.5H310ZM20 12.5H116ZM117 12.5H310ZM20 13.5H310ZM20 14.5H44ZM45 14.5H55ZM56 14.5H276ZM277 14.5H310ZM20 15.5H310ZM20 16.5H310ZM20 17.5H246ZM247 17.5H310ZM20 18.5H310ZM20 19.5H149ZM150 19.5H247ZM248 19.5H310ZM10 20.5H20ZM310 20.5H320ZM10 21.5H20ZM310 21.5H320ZM10 22.5H20ZM310 22.5H320ZM10 23.5H20ZM310 23.5H320ZM10 24.5H20ZM310 24.5H320ZM10 25.5H17ZM18 25.5H20ZM310 25.5H320ZM10 26.5H20ZM310 26.5H320ZM10 27.5H20ZM310 27.5H320ZM10 28.5H20ZM310 28.5H320ZM10 29.5H20ZM310 29.5H320ZM10 30.5H20ZM310 30.5H320ZM10 31.5H20ZM310 31.5H319ZM10 32.5H20ZM310 32.5H320ZM10 33.5H20ZM310 33.5H320ZM10 34.5H20ZM310 34.5H320ZM10 35.5H19ZM310 35.5H320ZM10 36.5H20ZM310 36.5H320ZM10 37.5H20ZM310 37.5H320ZM10 38.5H20ZM310 38.5H320ZM10 39.5H20ZM310 39.5H320ZM10 40.5H20ZM310 40.5H320ZM10 41.5H20ZM310 41.5H320ZM10 42.5H20ZM310 42.5H320ZM10 43.5H20ZM310 43.5H320ZM10 44.5H20ZM310 44.5H317ZM318 44.5H320ZM10 45.5H20ZM310 45.5H320ZM10 46.5H20ZM310 46.5H320ZM10 47.5H20ZM310 47.5H320ZM10 48.5H20ZM310 48.5H320ZM10 49.5H18ZM19 49.5H20ZM310 49.5H320ZM10 50.5H20ZM310 50.5H320ZM10 51.5H20ZM310 51.5H320ZM10 52.5H20ZM310 52.5H312ZM313 52.5H320ZM10 53.5H20ZM310 53.5H320ZM10 54.5H20ZM310 54.5H320ZM10 55.5H20ZM310 55.5H320ZM10 56.5H20ZM310 56.5H320ZM10 57.5H20ZM310 57.5H320ZM10 58.5H20ZM310 58.5H320ZM10 59.5H20ZM310 59.5H320ZM10 60.5H20ZM310 60.5H320ZM10 61.5H20ZM310 61.5H320ZM10 62.5H19ZM310 62.5H320ZM10 63.5H20ZM310 63.5H320ZM10 64.5H20ZM310 64.5H320ZM10 65.5H20ZM310 65.5H311ZM312 65.5H320ZM10 66.5H20ZM310 66.5H320ZM10 67.5H20ZM310 67.5H320ZM10 68.5H20ZM310 68.5H320ZM10 69.5H20ZM310 69.5H320ZM10 70.5H20ZM310 70.5H320ZM10 71.5H20ZM310 71.5H320ZM10 72.5H20ZM310 72.5H320ZM10 73.5H12ZM13 73.5H20ZM310 73.5H320ZM10 74.5H20ZM310 74.5H320ZM10 75.5H20ZM310 75.5H320ZM10 76.5H20ZM310 76.5H320ZM10 77.5H14ZM15 77.5H20ZM310 77.5H320ZM10 78.5H20ZM311 78.5H320ZM10 79.5H20ZM310 79.5H320ZM10 80.5H20ZM80 80.5H90ZM110 80.5H120ZM220 80.5H230ZM250 80.5H260ZM310 80.5H320ZM10 81.5H20ZM80 81.5H90ZM110 81.5H120ZM220 81.5H230ZM250 81.5H260ZM310 81.5H320ZM10 82.5H20ZM80 82.5H90ZM110 82.5H120ZM220 82.5H230ZM250 82.5H260ZM310 82.5H320ZM10 83.5H20ZM80 83.5H90ZM110 83.5H120ZM220 83.5H230ZM250 83.5H260ZM310 83.5H320ZM10 84.5H20ZM80 84.5H90ZM110 84.5H120ZM220 84.5H230ZM250 84.5H260ZM310 84.5H320ZM10 85.5H20ZM80 85.5H90ZM110 85.5H120ZM220 85.5H230ZM250 85.5H260ZM310 85.5H320ZM10 86.5H13ZM14 86.5H20ZM80 86.5H90ZM110 86.5H120ZM220 86.5H230ZM250 86.5H260ZM310 86.5H320ZM10 87.5H18ZM19 87.5H20ZM80 87.5H90ZM110 87.5H120ZM220 87.5H230ZM250 87.5H260ZM310 87.5H320ZM10 88.5H20ZM80 88.5H90ZM110 88.5H120ZM220 88.5H230ZM250 88.5H260ZM310 88.5H320ZM10 89.5H20ZM80 89.5H90ZM110 89.5H120ZM220 89.5H230ZM250 89.5H260ZM310 89.5H320ZM10 90.5H20ZM90 90.5H110ZM230 90.5H250ZM310 90.5H320ZM10 91.5H20ZM90 91.5H110ZM230 91.5H250ZM310 91.5H320ZM10 92.5H20ZM90 92.5H110ZM230 92.5H250ZM310 92.5H320ZM10 93.5H20ZM90 93.5H110ZM230 93.5H250ZM310 93.5H318ZM319 93.5H320ZM10 94.5H20ZM90 94.5H110ZM230 94.5H250ZM310 94.5H320ZM10 95.5H20ZM90 95.5H110ZM230 95.5H250ZM310 95.5H320ZM10 96.5H20ZM90 96.5H110ZM230 96.5H250ZM310 96.5H320ZM10 97.5H20ZM90 97.5H110ZM230 97.5H250ZM310 97.5H320ZM10 98.5H20ZM90 98.5H110ZM230 98.5H250ZM310 98.5H320ZM10 99.5H20ZM90 99.5H110ZM230 99.5H250ZM310 99.5H320ZM10 100.5H20ZM310 100.5H320ZM10 101.5H20ZM310 101.5H320ZM10 102.5H20ZM310 102.5H320ZM10 103.5H20ZM310 103.5H320ZM10 104.5H20ZM310 104.5H320ZM10 105.5H20ZM310 105.5H320ZM10 106.5H20ZM310 106.5H320ZM10 107.5H20ZM310 107.5H320ZM10 108.5H20ZM310 108.5H320ZM10 109.5H20ZM310 109.5H320ZM10 110.5H20ZM140 110.5H150ZM190 110.5H200ZM310 110.5H320ZM10 111.5H20ZM140 111.5H150ZM190 111.5H200ZM310 111.5H320ZM10 112.5H20ZM140 112.5H150ZM190 112.5H200ZM310 112.5H320ZM10 113.5H20ZM140 113.5H150ZM190 113.5H200ZM310 113.5H320ZM10 114.5H20ZM140 114.5H150ZM190 114.5H200ZM310 114.5H320ZM10 115.5H20ZM140 115.5H150ZM190 115.5H200ZM310 115.5H320ZM10 116.5H20ZM140 116.5H150ZM190 116.5H200ZM310 116.5H320ZM10 117.5H20ZM140 117.5H150ZM190 117.5H200ZM310 117.5H320ZM10 118.5H20ZM140 118.5H150ZM190 118.5H200ZM310 118.5H320ZM10 119.5H20ZM140 119.5H150ZM190 119.5H200ZM310 119.5H320ZM10 120.5H20ZM150 120.5H190ZM310 120.5H320ZM10 121.5H20ZM150 121.5H153ZM154 121.5H190ZM310 121.5H320ZM10 122.5H20ZM150 122.5H190ZM310 122.5H320ZM10 123.5H20ZM150 123.5H190ZM310 123.5H320ZM10 124.5H20ZM150 124.5H190ZM310 124.5H320ZM10 125.5H20ZM150 125.5H190ZM310 125.5H315ZM316 125.5H320ZM10 126.5H20ZM150 126.5H190ZM310 126.5H320ZM10 127.5H20ZM150 127.5H190ZM310 127.5H320ZM10 128.5H20ZM150 128.5H190ZM310 128.5H320ZM10 129.5H20ZM150 129.5H190ZM310 129.5H320ZM10 130.5H20ZM310 130.5H320ZM10 131.5H20ZM310 131.5H320ZM10 132.5H20ZM310 132.5H320ZM10 133.5H20ZM310 133.5H320ZM10 134.5H20ZM310 134.5H320ZM10 135.5H20ZM310 135.5H320ZM10 136.5H20ZM310 136.5H320ZM10 137.5H20ZM310 137.5H320ZM10 138.5H20ZM310 138.5H320ZM10 139.5H20ZM310 139.5H320ZM10 140.5H20ZM310 140.5H320ZM10 141.5H20ZM310 141.5H320ZM10 142.5H20ZM310 142.5H320ZM10 143.5H20ZM310 143.5H320ZM10 144.5H14ZM15 144.5H20ZM310 144.5H320ZM10 145.5H17ZM18 145.5H20ZM310 145.5H320ZM10 146.5H20ZM310 146.5H320ZM10 147.5H20ZM310 147.5H320ZM10 148.5H20ZM310 148.5H320ZM10 149.5H20ZM310 149.5H320ZM10 150.5H20ZM310 150.5H320ZM10 151.5H20ZM310 151.5H320ZM10 152.5H11ZM12 152.5H20ZM310 152.5H320ZM10 153.5H20ZM310 153.5H320ZM10 154.5H20ZM310 154.5H320ZM10 155.5H20ZM310 155.5H320ZM10 156.5H20ZM310 156.5H320ZM10 157.5H20ZM310 157.5H320ZM10 158.5H20ZM310 158.5H320ZM10 159.5H20ZM310 159.5H316ZM317 159.5H320ZM10 160.5H20ZM310 160.5H320ZM10 161.5H20ZM310 161.5H320ZM10 162.5H20ZM310 162.5H320ZM10 163.5H20ZM310 163.5H320ZM10 164.5H20ZM310 164.5H320ZM10 165.5H20ZM310 165.5H320ZM10 166.5H20ZM310 166.5H320ZM10 167.5H20ZM310 167.5H320ZM10 168.5H20ZM310 168.5H320ZM10 169.5H20ZM310 169.5H320ZM10 170.5H20ZM310 170.5H320ZM10 171.5H17ZM18 171.5H20ZM310 171.5H320ZM10 172.5H20ZM310 172.5H320ZM10 173.5H20ZM310 173.5H320ZM10 174.5H20ZM310 174.5H320ZM10 175.5H20ZM310 175.5H320ZM10 176.5H20ZM310 176.5H320ZM10 177.5H12ZM13 177.5H20ZM310 177.5H320ZM10 178.5H14ZM15 178.5H20ZM310 178.5H320ZM10 179.5H20ZM310 179.5H320ZM10 180.5H11ZM12 180.5H20ZM310 180.5H320ZM10 181.5H20ZM310 181.5H320ZM10 182.5H20ZM310 182.5H320ZM10 183.5H20ZM310 183.5H320ZM10 184.5H20ZM310 184.5H320ZM10 185.5H20ZM310 185.5H320ZM10 186.5H20ZM310 186.5H320ZM10 187.5H20ZM310 187.5H320ZM10 188.5H20ZM310 188.5H320ZM10 189.5H20ZM310 189.5H320ZM10 190.5H20ZM310 190.5H320ZM10 191.5H20ZM310 191.5H320ZM10 192.5H20ZM310 192.5H320ZM10 193.5H20ZM310 193.5H320ZM10 194.5H20ZM310 194.5H320ZM10 195.5H20ZM310 195.5H320ZM10 196.5H20ZM310 196.5H320ZM10 197.5H20ZM310 197.5H320ZM10 198.5H20ZM310 198.5H314ZM315 198.5H320ZM10 199.5H20ZM310 199.5H320ZM10 200.5H20ZM310 200.5H320ZM10 201.5H20ZM310 201.5H320ZM10 202.5H20ZM310 202.5H320ZM10 203.5H20ZM310 203.5H320ZM10 204.5H20ZM310 204.5H320ZM10 205.5H20ZM310 205.5H320ZM10 206.5H20ZM310 206.5H320ZM10 207.5H20ZM310 207.5H320ZM10 208.5H20ZM310 208.5H320ZM10 209.5H20ZM310 209.5H320ZM10 210.5H20ZM310 210.5H320ZM10 211.5H20ZM310 211.5H320ZM10 212.5H20ZM310 212.5H320ZM10 213.5H20ZM310 213.5H320ZM10 214.5H20ZM310 214.5H320ZM10 215.5H17ZM18 215.5H20ZM310 215.5H320ZM10 216.5H20ZM310 216.5H320ZM10 217.5H20ZM310 217.5H320ZM10 218.5H20ZM310 218.5H320ZM10 219.5H20ZM310 219.5H320ZM10 220.5H20ZM310 220.5H320ZM10 221.5H20ZM310 221.5H320ZM10 222.5H20ZM310 222.5H320ZM10 223.5H20ZM310 223.5H320ZM10 224.5H20ZM310 224.5H320ZM10 225.5H20ZM310 225.5H320ZM10 226.5H20ZM310 226.5H320ZM10 227.5H20ZM310 227.5H320ZM10 228.5H20ZM310 228.5H320ZM10 229.5H20ZM310 229.5H320ZM20 230.5H72ZM73 230.5H168ZM169 230.5H250ZM251 230.5H257ZM258 230.5H310ZM20 231.5H189ZM190 231.5H285ZM286 231.5H310ZM20 232.5H310ZM20 233.5H70ZM71 233.5H104ZM105 233.5H310ZM20 234.5H130ZM131 234.5H221ZM222 234.5H310ZM20 235.5H27ZM28 235.5H52ZM53 235.5H195ZM196 235.5H284ZM285 235.5H310ZM20 236.5H201ZM202 236.5H310ZM20 237.5H145ZM146 237.5H179ZM180 237.5H310ZM20 238.5H310ZM20 239.5H147ZM148 239.5H310Z" fill="#052C35"/>
<path d="M20 10.5H58M59 10.5H120M121 10.5H147M148 10.5H223M224 10.5H277M278 10.5H310M20 11.5H140M141 11.5H206M207 11.5H310M20 12.5H116M117 12.5H310M20 13.5H310M20 14.5H44M45 14.5H55M56 14.5H276M277 14.5H310M20 15.5H310M20 16.5H310M20 17.5H246M247 17.5H310M20 18.5H310M20 19.5H149M150 19.5H247M248 19.5H310M10 20.5H20M310 20.5H320M10 21.5H20M310 21.5H320M10 22.5H20M310 22.5H320M10 23.5H20M310 23.5H320M10 24.5H20M310 24.5H320M10 25.5H17M18 25.5H20M310 25.5H320M10 26.5H20M310 26.5H320M10 27.5H20M310 27.5H320M10 28.5H20M310 28.5H320M10 29.5H20M310 29.5H320M10 30.5H20M310 30.5H320M10 31.5H20M310 31.5H319M10 32.5H20M310 32.5H320M10 33.5H20M310 33.5H320M10 34.5H20M310 34.5H320M10 35.5H19M310 35.5H320M10 36.5H20M310 36.5H320M10 37.5H20M310 37.5H320M10 38.5H20M310 38.5H320M10 39.5H20M310 39.5H320M10 40.5H20M310 40.5H320M10 41.5H20M310 41.5H320M10 42.5H20M310 42.5H320M10 43.5H20M310 43.5H320M10 44.5H20M310 44.5H317M318 44.5H320M10 45.5H20M310 45.5H320M10 46.5H20M310 46.5H320M10 47.5H20M310 47.5H320M10 48.5H20M310 48.5H320M10 49.5H18M19 49.5H20M310 49.5H320M10 50.5H20M310 50.5H320M10 51.5H20M310 51.5H320M10 52.5H20M310 52.5H312M313 52.5H320M10 53.5H20M310 53.5H320M10 54.5H20M310 54.5H320M10 55.5H20M310 55.5H320M10 56.5H20M310 56.5H320M10 57.5H20M310 57.5H320M10 58.5H20M310 58.5H320M10 59.5H20M310 59.5H320M10 60.5H20M310 60.5H320M10 61.5H20M310 61.5H320M10 62.5H19M310 62.5H320M10 63.5H20M310 63.5H320M10 64.5H20M310 64.5H320M10 65.5H20M310 65.5H311M312 65.5H320M10 66.5H20M310 66.5H320M10 67.5H20M310 67.5H320M10 68.5H20M310 68.5H320M10 69.5H20M310 69.5H320M10 70.5H20M310 70.5H320M10 71.5H20M310 71.5H320M10 72.5H20M310 72.5H320M10 73.5H12M13 73.5H20M310 73.5H320M10 74.5H20M310 74.5H320M10 75.5H20M310 75.5H320M10 76.5H20M310 76.5H320M10 77.5H14M15 77.5H20M310 77.5H320M10 78.5H20M311 78.5H320M10 79.5H20M310 79.5H320M10 80.5H20M80 80.5H90M110 80.5H120M220 80.5H230M250 80.5H260M310 80.5H320M10 81.5H20M80 81.5H90M110 81.5H120M220 81.5H230M250 81.5H260M310 81.5H320M10 82.5H20M80 82.5H90M110 82.5H120M220 82.5H230M250 82.5H260M310 82.5H320M10 83.5H20M80 83.5H90M110 83.5H120M220 83.5H230M250 83.5H260M310 83.5H320M10 84.5H20M80 84.5H90M110 84.5H120M220 84.5H230M250 84.5H260M310 84.5H320M10 85.5H20M80 85.5H90M110 85.5H120M220 85.5H230M250 85.5H260M310 85.5H320M10 86.5H13M14 86.5H20M80 86.5H90M110 86.5H120M220 86.5H230M250 86.5H260M310 86.5H320M10 87.5H18M19 87.5H20M80 87.5H90M110 87.5H120M220 87.5H230M250 87.5H260M310 87.5H320M10 88.5H20M80 88.5H90M110 88.5H120M220 88.5H230M250 88.5H260M310 88.5H320M10 89.5H20M80 89.5H90M110 89.5H120M220 89.5H230M250 89.5H260M310 89.5H320M10 90.5H20M90 90.5H110M230 90.5H250M310 90.5H320M10 91.5H20M90 91.5H110M230 91.5H250M310 91.5H320M10 92.5H20M90 92.5H110M230 92.5H250M310 92.5H320M10 93.5H20M90 93.5H110M230 93.5H250M310 93.5H318M319 93.5H320M10 94.5H20M90 94.5H110M230 94.5H250M310 94.5H320M10 95.5H20M90 95.5H110M230 95.5H250M310 95.5H320M10 96.5H20M90 96.5H110M230 96.5H250M310 96.5H320M10 97.5H20M90 97.5H110M230 97.5H250M310 97.5H320M10 98.5H20M90 98.5H110M230 98.5H250M310 98.5H320M10 99.5H20M90 99.5H110M230 99.5H250M310 99.5H320M10 100.5H20M310 100.5H320M10 101.5H20M310 101.5H320M10 102.5H20M310 102.5H320M10 103.5H20M310 103.5H320M10 104.5H20M310 104.5H320M10 105.5H20M310 105.5H320M10 106.5H20M310 106.5H320M10 107.5H20M310 107.5H320M10 108.5H20M310 108.5H320M10 109.5H20M310 109.5H320M10 110.5H20M140 110.5H150M190 110.5H200M310 110.5H320M10 111.5H20M140 111.5H150M190 111.5H200M310 111.5H320M10 112.5H20M140 112.5H150M190 112.5H200M310 112.5H320M10 113.5H20M140 113.5H150M190 113.5H200M310 113.5H320M10 114.5H20M140 114.5H150M190 114.5H200M310 114.5H320M10 115.5H20M140 115.5H150M190 115.5H200M310 115.5H320M10 116.5H20M140 116.5H150M190 116.5H200M310 116.5H320M10 117.5H20M140 117.5H150M190 117.5H200M310 117.5H320M10 118.5H20M140 118.5H150M190 118.5H200M310 118.5H320M10 119.5H20M140 119.5H150M190 119.5H200M310 119.5H320M10 120.5H20M150 120.5H190M310 120.5H320M10 121.5H20M150 121.5H153M154 121.5H190M310 121.5H320M10 122.5H20M150 122.5H190M310 122.5H320M10 123.5H20M150 123.5H190M310 123.5H320M10 124.5H20M150 124.5H190M310 124.5H320M10 125.5H20M150 125.5H190M310 125.5H315M316 125.5H320M10 126.5H20M150 126.5H190M310 126.5H320M10 127.5H20M150 127.5H190M310 127.5H320M10 128.5H20M150 128.5H190M310 128.5H320M10 129.5H20M150 129.5H190M310 129.5H320M10 130.5H20M310 130.5H320M10 131.5H20M310 131.5H320M10 132.5H20M310 132.5H320M10 133.5H20M310 133.5H320M10 134.5H20M310 134.5H320M10 135.5H20M310 135.5H320M10 136.5H20M310 136.5H320M10 137.5H20M310 137.5H320M10 138.5H20M310 138.5H320M10 139.5H20M310 139.5H320M10 140.5H20M310 140.5H320M10 141.5H20M310 141.5H320M10 142.5H20M310 142.5H320M10 143.5H20M310 143.5H320M10 144.5H14M15 144.5H20M310 144.5H320M10 145.5H17M18 145.5H20M310 145.5H320M10 146.5H20M310 146.5H320M10 147.5H20M310 147.5H320M10 148.5H20M310 148.5H320M10 149.5H20M310 149.5H320M10 150.5H20M310 150.5H320M10 151.5H20M310 151.5H320M10 152.5H11M12 152.5H20M310 152.5H320M10 153.5H20M310 153.5H320M10 154.5H20M310 154.5H320M10 155.5H20M310 155.5H320M10 156.5H20M310 156.5H320M10 157.5H20M310 157.5H320M10 158.5H20M310 158.5H320M10 159.5H20M310 159.5H316M317 159.5H320M10 160.5H20M310 160.5H320M10 161.5H20M310 161.5H320M10 162.5H20M310 162.5H320M10 163.5H20M310 163.5H320M10 164.5H20M310 164.5H320M10 165.5H20M310 165.5H320M10 166.5H20M310 166.5H320M10 167.5H20M310 167.5H320M10 168.5H20M310 168.5H320M10 169.5H20M310 169.5H320M10 170.5H20M310 170.5H320M10 171.5H17M18 171.5H20M310 171.5H320M10 172.5H20M310 172.5H320M10 173.5H20M310 173.5H320M10 174.5H20M310 174.5H320M10 175.5H20M310 175.5H320M10 176.5H20M310 176.5H320M10 177.5H12M13 177.5H20M310 177.5H320M10 178.5H14M15 178.5H20M310 178.5H320M10 179.5H20M310 179.5H320M10 180.5H11M12 180.5H20M310 180.5H320M10 181.5H20M310 181.5H320M10 182.5H20M310 182.5H320M10 183.5H20M310 183.5H320M10 184.5H20M310 184.5H320M10 185.5H20M310 185.5H320M10 186.5H20M310 186.5H320M10 187.5H20M310 187.5H320M10 188.5H20M310 188.5H320M10 189.5H20M310 189.5H320M10 190.5H20M310 190.5H320M10 191.5H20M310 191.5H320M10 192.5H20M310 192.5H320M10 193.5H20M310 193.5H320M10 194.5H20M310 194.5H320M10 195.5H20M310 195.5H320M10 196.5H20M310 196.5H320M10 197.5H20M310 197.5H320M10 198.5H20M310 198.5H314M315 198.5H320M10 199.5H20M310 199.5H320M10 200.5H20M310 200.5H320M10 201.5H20M310 201.5H320M10 202.5H20M310 202.5H320M10 203.5H20M310 203.5H320M10 204.5H20M310 204.5H320M10 205.5H20M310 205.5H320M10 206.5H20M310 206.5H320M10 207.5H20M310 207.5H320M10 208.5H20M310 208.5H320M10 209.5H20M310 209.5H320M10 210.5H20M310 210.5H320M10 211.5H20M310 211.5H320M10 212.5H20M310 212.5H320M10 213.5H20M310 213.5H320M10 214.5H20M310 214.5H320M10 215.5H17M18 215.5H20M310 215.5H320M10 216.5H20M310 216.5H320M10 217.5H20M310 217.5H320M10 218.5H20M310 218.5H320M10 219.5H20M310 219.5H320M10 220.5H20M310 220.5H320M10 221.5H20M310 221.5H320M10 222.5H20M310 222.5H320M10 223.5H20M310 223.5H320M10 224.5H20M310 224.5H320M10 225.5H20M310 225.5H320M10 226.5H20M310 226.5H320M10 227.5H20M310 227.5H320M10 228.5H20M310 228.5H320M10 229.5H20M310 229.5H320M20 230.5H72M73 230.5H168M169 230.5H250M251 230.5H257M258 230.5H310M20 231.5H189M190 231.5H285M286 231.5H310M20 232.5H310M20 233.5H70M71 233.5H104M105 233.5H310M20 234.5H130M131 234.5H221M222 234.5H310M20 235.5H27M28 235.5H52M53 235.5H195M196 235.5H284M285 235.5H310M20 236.5H201M202 236.5H310M20 237.5H145M146 237.5H179M180 237.5H310M20 238.5H310M20 239.5H147M148 239.5H310" stroke="#052C35"/>
<path d="M58 10.5H59ZM223 10.5H224ZM277 10.5H278ZM55 14.5H56ZM247 19.5H248ZM319 31.5H320ZM19 35.5H20ZM19 62.5H20ZM310 78.5H311ZM13 86.5H14ZM316 159.5H317ZM250 230.5H251ZM70 233.5H71ZM130 234.5H131ZM52 235.5H53ZM145 237.5H146Z" fill="#052C35"/>
<path d="M58 10.5H59M223 10.5H224M277 10.5H278M55 14.5H56M247 19.5H248M319 31.5H320M19 35.5H20M19 62.5H20M310 78.5H311M13 86.5H14M316 159.5H317M250 230.5H251M70 233.5H71M130 234.5H131M52 235.5H53M145 237.5H146" stroke="#052C35"/>
<path d="M120 10.5H121ZM147 10.5H148ZM276 14.5H277ZM246 17.5H247ZM18 49.5H19ZM312 52.5H313ZM12 73.5H13ZM18 87.5H19ZM318 93.5H319ZM153 121.5H154ZM315 125.5H316ZM12 177.5H13ZM72 230.5H73ZM168 230.5H169ZM189 231.5H190ZM285 231.5H286ZM27 235.5H28ZM195 235.5H196ZM201 236.5H202ZM147 239.5H148Z" fill="#052C35"/>
<path d="M120 10.5H121M147 10.5H148M276 14.5H277M246 17.5H247M18 49.5H19M312 52.5H313M12 73.5H13M18 87.5H19M318 93.5H319M153 121.5H154M315 125.5H316M12 177.5H13M72 230.5H73M168 230.5H169M189 231.5H190M285 231.5H286M27 235.5H28M195 235.5H196M201 236.5H202M147 239.5H148" stroke="#052C35"/>
<path d="M140 11.5H141ZM206 11.5H207ZM116 12.5H117ZM44 14.5H45ZM149 19.5H150ZM17 25.5H18ZM317 44.5H318ZM311 65.5H312ZM14 77.5H15ZM14 144.5H15ZM17 145.5H18ZM11 152.5H12ZM17 171.5H18ZM14 178.5H15ZM11 180.5H12ZM314 198.5H315ZM17 215.5H18ZM257 230.5H258ZM104 233.5H105ZM221 234.5H222ZM284 235.5H285ZM179 237.5H180Z" fill="#052C35"/>
<path d="M140 11.5H141M206 11.5H207M116 12.5H117M44 14.5H45M149 19.5H150M17 25.5H18M317 44.5H318M311 65.5H312M14 77.5H15M14 144.5H15M17 145.5H18M11 152.5H12M17 171.5H18M14 178.5H15M11 180.5H12M314 198.5H315M17 215.5H18M257 230.5H258M104 233.5H105M221 234.5H222M284 235.5H285M179 237.5H180" stroke="#052C35"/>
</g>
<defs>
<clipPath id="clip0_29_31">
<rect width="330" height="250" fill="white"/>
</clipPath>
</defs>
</svg>
